<svg id="visual" viewBox="0 0 900 600" width="900" height="600" xmlns="http://www.w3.org/2000/svg" xmlns:xlink="http://www.w3.org/1999/xlink" version="1.1"><rect x="0" y="0" width="900" height="600" fill="#ffffff"></rect><defs><linearGradient id="grad1_0" x1="33.3%" y1="0%" x2="100%" y2="100%"><stop offset="20%" stop-color="#266dd3" stop-opacity="1"></stop><stop offset="80%" stop-color="#266dd3" stop-opacity="1"></stop></linearGradient></defs><defs><linearGradient id="grad1_1" x1="33.3%" y1="0%" x2="100%" y2="100%"><stop offset="20%" stop-color="#266dd3" stop-opacity="1"></stop><stop offset="80%" stop-color="#5880da" stop-opacity="1"></stop></linearGradient></defs><defs><linearGradient id="grad1_2" x1="33.3%" y1="0%" x2="100%" y2="100%"><stop offset="20%" stop-color="#7a94e0" stop-opacity="1"></stop><stop offset="80%" stop-color="#5880da" stop-opacity="1"></stop></linearGradient></defs><defs><linearGradient id="grad1_3" x1="33.3%" y1="0%" x2="100%" y2="100%"><stop offset="20%" stop-color="#7a94e0" stop-opacity="1"></stop><stop offset="80%" stop-color="#97a8e7" stop-opacity="1"></stop></linearGradient></defs><defs><linearGradient id="grad1_4" x1="33.3%" y1="0%" x2="100%" y2="100%"><stop offset="20%" stop-color="#b2bded" stop-opacity="1"></stop><stop offset="80%" stop-color="#97a8e7" stop-opacity="1"></stop></linearGradient></defs><defs><linearGradient id="grad1_5" x1="33.3%" y1="0%" x2="100%" y2="100%"><stop offset="20%" stop-color="#b2bded" stop-opacity="1"></stop><stop offset="80%" stop-color="#ccd3f3" stop-opacity="1"></stop></linearGradient></defs><defs><linearGradient id="grad1_6" x1="33.3%" y1="0%" x2="100%" y2="100%"><stop offset="20%" stop-color="#e6e9f9" stop-opacity="1"></stop><stop offset="80%" stop-color="#ccd3f3" stop-opacity="1"></stop></linearGradient></defs><defs><linearGradient id="grad1_7" x1="33.3%" y1="0%" x2="100%" y2="100%"><stop offset="20%" stop-color="#e6e9f9" stop-opacity="1"></stop><stop offset="80%" stop-color="#ffffff" stop-opacity="1"></stop></linearGradient></defs><defs><linearGradient id="grad2_0" x1="0%" y1="0%" x2="66.7%" y2="100%"><stop offset="20%" stop-color="#266dd3" stop-opacity="1"></stop><stop offset="80%" stop-color="#266dd3" stop-opacity="1"></stop></linearGradient></defs><defs><linearGradient id="grad2_1" x1="0%" y1="0%" x2="66.7%" y2="100%"><stop offset="20%" stop-color="#5880da" stop-opacity="1"></stop><stop offset="80%" stop-color="#266dd3" stop-opacity="1"></stop></linearGradient></defs><defs><linearGradient id="grad2_2" x1="0%" y1="0%" x2="66.7%" y2="100%"><stop offset="20%" stop-color="#5880da" stop-opacity="1"></stop><stop offset="80%" stop-color="#7a94e0" stop-opacity="1"></stop></linearGradient></defs><defs><linearGradient id="grad2_3" x1="0%" y1="0%" x2="66.7%" y2="100%"><stop offset="20%" stop-color="#97a8e7" stop-opacity="1"></stop><stop offset="80%" stop-color="#7a94e0" stop-opacity="1"></stop></linearGradient></defs><defs><linearGradient id="grad2_4" x1="0%" y1="0%" x2="66.7%" y2="100%"><stop offset="20%" stop-color="#97a8e7" stop-opacity="1"></stop><stop offset="80%" stop-color="#b2bded" stop-opacity="1"></stop></linearGradient></defs><defs><linearGradient id="grad2_5" x1="0%" y1="0%" x2="66.7%" y2="100%"><stop offset="20%" stop-color="#ccd3f3" stop-opacity="1"></stop><stop offset="80%" stop-color="#b2bded" stop-opacity="1"></stop></linearGradient></defs><defs><linearGradient id="grad2_6" x1="0%" y1="0%" x2="66.7%" y2="100%"><stop offset="20%" stop-color="#ccd3f3" stop-opacity="1"></stop><stop offset="80%" stop-color="#e6e9f9" stop-opacity="1"></stop></linearGradient></defs><defs><linearGradient id="grad2_7" x1="0%" y1="0%" x2="66.7%" y2="100%"><stop offset="20%" stop-color="#ffffff" stop-opacity="1"></stop><stop offset="80%" stop-color="#e6e9f9" stop-opacity="1"></stop></linearGradient></defs><g transform="translate(900, 0)"><path d="M0 540.8C-49 498.9 -98 457 -134.1 412.8C-170.2 368.5 -193.4 321.8 -206.3 284C-219.2 246.1 -221.7 217 -282.3 205.1C-343 193.2 -461.6 198.5 -514.4 167.1C-567.1 135.8 -554 67.9 -540.8 0L0 0Z" fill="#f2f4fc"></path><path d="M0 473.2C-42.9 436.6 -85.8 399.9 -117.3 361.2C-148.9 322.4 -169.3 281.6 -180.5 248.5C-191.8 215.3 -194 189.9 -247.1 179.5C-300.1 169.1 -403.9 173.7 -450.1 146.2C-496.2 118.8 -484.7 59.4 -473.2 0L0 0Z" fill="#d9ddf6"></path><path d="M0 405.6C-36.8 374.2 -73.5 342.8 -100.6 309.6C-127.7 276.4 -145.1 241.4 -154.7 213C-164.4 184.6 -166.3 162.8 -211.8 153.9C-257.2 144.9 -346.2 148.8 -385.8 125.3C-425.3 101.8 -415.5 50.9 -405.6 0L0 0Z" fill="#bfc8f0"></path><path d="M0 338C-30.6 311.8 -61.3 285.6 -83.8 258C-106.4 230.3 -120.9 201.1 -128.9 177.5C-137 153.8 -138.6 135.7 -176.5 128.2C-214.3 120.8 -288.5 124 -321.5 104.5C-354.4 84.9 -346.2 42.4 -338 0L0 0Z" fill="#a5b2ea"></path><path d="M0 270.4C-24.5 249.5 -49 228.5 -67.1 206.4C-85.1 184.2 -96.7 160.9 -103.2 142C-109.6 123.1 -110.9 108.5 -141.2 102.6C-171.5 96.6 -230.8 99.2 -257.2 83.6C-283.6 67.9 -277 33.9 -270.4 0L0 0Z" fill="#899ee4"></path><path d="M0 202.8C-18.4 187.1 -36.8 171.4 -50.3 154.8C-63.8 138.2 -72.5 120.7 -77.4 106.5C-82.2 92.3 -83.2 81.4 -105.9 76.9C-128.6 72.5 -173.1 74.4 -192.9 62.7C-212.7 50.9 -207.7 25.5 -202.8 0L0 0Z" fill="#6a8add"></path><path d="M0 135.2C-12.3 124.7 -24.5 114.3 -33.5 103.2C-42.6 92.1 -48.4 80.5 -51.6 71C-54.8 61.5 -55.4 54.3 -70.6 51.3C-85.7 48.3 -115.4 49.6 -128.6 41.8C-141.8 33.9 -138.5 17 -135.2 0L0 0Z" fill="#4376d6"></path><path d="M0 67.6C-6.1 62.4 -12.3 57.1 -16.8 51.6C-21.3 46.1 -24.2 40.2 -25.8 35.5C-27.4 30.8 -27.7 27.1 -35.3 25.6C-42.9 24.2 -57.7 24.8 -64.3 20.9C-70.9 17 -69.2 8.5 -67.6 0L0 0Z" fill="#266dd3"></path></g><g transform="translate(0, 600)"><path d="M0 -540.8C57.3 -529.9 114.5 -519 158.8 -488.8C203.1 -458.6 234.5 -409.1 272.1 -374.6C309.8 -340 353.7 -320.5 398.8 -289.8C444 -259.1 490.5 -217.3 514.4 -167.1C538.2 -117 539.5 -58.5 540.8 0L0 0Z" fill="#f2f4fc"></path><path d="M0 -473.2C50.1 -463.7 100.2 -454.2 139 -427.7C177.8 -401.3 205.2 -358 238.1 -327.8C271.1 -297.5 309.5 -280.4 349 -253.6C388.5 -226.7 429.2 -190.1 450.1 -146.2C471 -102.4 472.1 -51.2 473.2 0L0 0Z" fill="#d9ddf6"></path><path d="M0 -405.6C42.9 -397.5 85.9 -389.3 119.1 -366.6C152.4 -344 175.9 -306.8 204.1 -280.9C232.3 -255 265.3 -240.4 299.1 -217.3C333 -194.3 367.9 -163 385.8 -125.3C403.7 -87.7 404.7 -43.9 405.6 0L0 0Z" fill="#bfc8f0"></path><path d="M0 -338C35.8 -331.2 71.6 -324.4 99.3 -305.5C127 -286.6 146.6 -255.7 170.1 -234.1C193.6 -212.5 221 -200.3 249.3 -181.1C277.5 -161.9 306.6 -135.8 321.5 -104.5C336.4 -73.1 337.2 -36.6 338 0L0 0Z" fill="#a5b2ea"></path><path d="M0 -270.4C28.6 -265 57.3 -259.5 79.4 -244.4C101.6 -229.3 117.3 -204.6 136.1 -187.3C154.9 -170 176.8 -160.2 199.4 -144.9C222 -129.5 245.2 -108.6 257.2 -83.6C269.1 -58.5 269.8 -29.2 270.4 0L0 0Z" fill="#899ee4"></path><path d="M0 -202.8C21.5 -198.7 42.9 -194.6 59.6 -183.3C76.2 -172 87.9 -153.4 102.1 -140.5C116.2 -127.5 132.6 -120.2 149.6 -108.7C166.5 -97.2 183.9 -81.5 192.9 -62.7C201.8 -43.9 202.3 -21.9 202.8 0L0 0Z" fill="#6a8add"></path><path d="M0 -135.2C14.3 -132.5 28.6 -129.8 39.7 -122.2C50.8 -114.7 58.6 -102.3 68 -93.6C77.4 -85 88.4 -80.1 99.7 -72.4C111 -64.8 122.6 -54.3 128.6 -41.8C134.6 -29.2 134.9 -14.6 135.2 0L0 0Z" fill="#4376d6"></path><path d="M0 -67.6C7.2 -66.2 14.3 -64.9 19.9 -61.1C25.4 -57.3 29.3 -51.1 34 -46.8C38.7 -42.5 44.2 -40.1 49.9 -36.2C55.5 -32.4 61.3 -27.2 64.3 -20.9C67.3 -14.6 67.4 -7.3 67.6 0L0 0Z" fill="#266dd3"></path></g></svg>