<?xml version="1.0" encoding="UTF-8" standalone="no"?>
<!-- Created with Inkscape (http://www.inkscape.org/) -->

<svg
   width="28.295597mm"
   height="37.185596mm"
   viewBox="0 0 28.295597 37.185596"
   version="1.1"
   id="svg1"
   xmlns:inkscape="http://www.inkscape.org/namespaces/inkscape"
   xmlns:sodipodi="http://sodipodi.sourceforge.net/DTD/sodipodi-0.dtd"
   xmlns="http://www.w3.org/2000/svg"
   xmlns:svg="http://www.w3.org/2000/svg">
  <sodipodi:namedview
     id="namedview1"
     pagecolor="#ffffff"
     bordercolor="#000000"
     borderopacity="0.25"
     inkscape:showpageshadow="2"
     inkscape:pageopacity="0.0"
     inkscape:pagecheckerboard="0"
     inkscape:deskcolor="#d1d1d1"
     inkscape:document-units="mm">
    <inkscape:page
       x="-3.754349e-13"
       y="0"
       width="28.295599"
       height="37.185596"
       id="page2"
       margin="0"
       bleed="0" />
  </sodipodi:namedview>
  <defs
     id="defs1" />
  <g
     inkscape:label="Layer 1"
     inkscape:groupmode="layer"
     id="layer1"
     transform="translate(-93.636815,-100.84865)">
    <path
       d="m 103.69522,111.41503 v 2.1336 q 0,0.508 0.3556,0.8636 0.3556,0.3556 0.8636,0.3556 h 13.7668 q 0.508,0 0.8636,0.3556 0.3556,0.3556 0.3556,0.8636 v 7.0104 q 0,0.508 -0.3556,0.8636 -0.3556,0.3556 -0.8636,0.3556 h -13.7668 q -0.508,0 -0.8636,0.3556 -0.3556,0.3556 -0.3556,0.8636 v 1.9304 q 0,0.508 0.3556,0.8636 0.3556,0.3556 0.8636,0.3556 h 15.7988 q 0.508,0 0.8636,0.3556 0.3556,0.3556 0.3556,0.8636 v 7.0104 q 0,0.508 -0.3556,0.8636 -0.3556,0.3556 -0.8636,0.3556 h -25.8572 q -0.508,0 -0.8636,-0.3556 -0.3556,-0.3556 -0.3556,-0.8636 v -34.7472 q 0,-0.508 0.3556,-0.8636 0.3556,-0.3556 0.8636,-0.3556 h 25.8572 q 0.508,0 0.8636,0.3556 0.3556,0.3556 0.3556,0.8636 v 6.9088 q 0,0.508 -0.3556,0.8636 -0.3556,0.3556 -0.8636,0.3556 h -15.7988 q -0.508,0 -0.8636,0.3556 -0.3556,0.3556 -0.3556,0.8636 z"
       id="text1"
       style="font-size:50.8px;font-family:Heavitas;-inkscape-font-specification:Heavitas;stroke-width:0.264583"
       aria-label="E" />
  </g>
</svg>
