<?xml version="1.0" encoding="UTF-8" standalone="no"?>
<!-- Created with Inkscape (http://www.inkscape.org/) -->

<svg
   width="32.816803mm"
   height="37.185596mm"
   viewBox="0 0 32.816803 37.185596"
   version="1.1"
   id="svg1"
   xmlns:inkscape="http://www.inkscape.org/namespaces/inkscape"
   xmlns:sodipodi="http://sodipodi.sourceforge.net/DTD/sodipodi-0.dtd"
   xmlns="http://www.w3.org/2000/svg"
   xmlns:svg="http://www.w3.org/2000/svg">
  <sodipodi:namedview
     id="namedview1"
     pagecolor="#ffffff"
     bordercolor="#000000"
     borderopacity="0.25"
     inkscape:showpageshadow="2"
     inkscape:pageopacity="0.0"
     inkscape:pagecheckerboard="0"
     inkscape:deskcolor="#d1d1d1"
     inkscape:document-units="mm">
    <inkscape:page
       x="0"
       y="8.9644316e-22"
       width="32.816803"
       height="37.185596"
       id="page2"
       margin="0"
       bleed="0" />
  </sodipodi:namedview>
  <defs
     id="defs1" />
  <g
     inkscape:label="Layer 1"
     inkscape:groupmode="layer"
     id="layer1"
     transform="translate(-87.268067,-95.816128)">
    <path
       d="m 96.056468,133.00172 h -7.5692 q -0.508,0 -0.8636,-0.3556 -0.3556,-0.3556 -0.3556,-0.8636 V 97.035325 q 0,-0.508 0.3556,-0.8636 0.3556,-0.3556 0.8636,-0.3556 h 15.798802 q 2.9464,0 5.4356,1.016 2.4892,0.9652 4.2164,2.7432 1.778,1.777995 2.7432,4.216395 1.016,2.4384 1.016,5.3848 0,1.6256 -0.4064,3.2512 -0.3556,1.5748 -1.0668,2.9972 -0.7112,1.4224 -1.6764,2.5908 -0.9652,1.1176 -2.1844,1.8796 -0.4064,0.3048 -0.5588,0.762 -0.1016,0.4064 0.2032,0.8128 1.9304,2.54 4.064,5.2324 2.1336,2.6924 3.81,4.9276 0.3048,0.4064 0.1524,0.9144 -0.1524,0.4572 -0.6604,0.4572 h -9.4488 q -0.508,0 -1.1176,-0.254 -0.5588,-0.3048 -0.8636,-0.7112 -1.6256,-2.1336 -3.2512,-4.318 -1.5748,-2.1844 -3.1496,-4.4196 -0.3048,-0.4064 -0.8636,-0.6604 -0.5588,-0.3048 -1.066803,-0.3048 h -1.1176 q -0.508,0 -0.8636,0.3556 -0.3556,0.3556 -0.3556,0.8636 v 8.2296 q 0,0.508 -0.355599,0.8636 -0.3556,0.3556 -0.8636,0.3556 z m 2.438399,-20.0152 h 5.384803 q 0.6096,0 1.27,-0.2032 0.6604,-0.254 1.2192,-0.7112 0.5588,-0.508 0.9144,-1.2192 0.3556,-0.7112 0.3556,-1.6764 0,-0.508 -0.2032,-1.1684 -0.1524,-0.7112 -0.6096,-1.3208 -0.4064,-0.6604 -1.1684,-1.0668 -0.7112,-0.4572 -1.778,-0.4572 h -5.384803 q -0.508,0 -0.8636,0.3556 -0.3556,0.3556 -0.3556,0.8636 v 5.3848 q 0,0.508 0.3556,0.8636 0.3556,0.3556 0.8636,0.3556 z"
       id="text1"
       style="font-size:50.8px;font-family:Heavitas;-inkscape-font-specification:Heavitas;stroke-width:0.264583"
       aria-label="R"
       inkscape:export-filename="R.svg"
       inkscape:export-xdpi="96"
       inkscape:export-ydpi="96" />
  </g>
</svg>
