<?xml version="1.0" encoding="UTF-8" standalone="no"?>
<!-- Created with Inkscape (http://www.inkscape.org/) -->

<svg
   width="29.260801mm"
   height="37.185596mm"
   viewBox="0 0 29.260801 37.185596"
   version="1.1"
   id="svg1"
   xmlns:inkscape="http://www.inkscape.org/namespaces/inkscape"
   xmlns:sodipodi="http://sodipodi.sourceforge.net/DTD/sodipodi-0.dtd"
   xmlns="http://www.w3.org/2000/svg"
   xmlns:svg="http://www.w3.org/2000/svg">
  <sodipodi:namedview
     id="namedview1"
     pagecolor="#ffffff"
     bordercolor="#000000"
     borderopacity="0.25"
     inkscape:showpageshadow="2"
     inkscape:pageopacity="0.0"
     inkscape:pagecheckerboard="0"
     inkscape:deskcolor="#d1d1d1"
     inkscape:document-units="mm">
    <inkscape:page
       x="0"
       y="8.9644316e-22"
       width="29.260801"
       height="37.185596"
       id="page2"
       margin="0"
       bleed="0" />
  </sodipodi:namedview>
  <defs
     id="defs1" />
  <g
     inkscape:label="Layer 1"
     inkscape:groupmode="layer"
     id="layer1"
     transform="translate(-79.172111,-88.267383)">
    <path
       d="m 107.21372,97.614573 h -7.112 q -0.508005,0 -0.863605,0.3556 -0.3556,0.3556 -0.3556,0.8636 v 25.399997 q 0,0.508 -0.3556,0.8636 -0.3048,0.3556 -0.8636,0.3556 h -7.62 q -0.508,0 -0.8636,-0.3556 -0.3556,-0.3556 -0.3556,-0.8636 V 98.833773 q 0,-0.508 -0.3556,-0.8636 -0.3048,-0.3556 -0.8636,-0.3556 h -7.2136 q -0.508,0 -0.8636,-0.3556 -0.3556,-0.3556 -0.3556,-0.8636 v -6.9088 q 0,-0.508 0.3556,-0.8636 0.3556,-0.3556 0.8636,-0.3556 h 26.822405 q 0.5588,0 0.8636,0.3556 0.3556,0.3556 0.3556,0.8636 v 6.9088 q 0,0.508 -0.3556,0.8636 -0.3048,0.3556 -0.8636,0.3556 z"
       id="text1"
       style="font-size:50.8px;font-family:Heavitas;-inkscape-font-specification:Heavitas;stroke-width:0.264583"
       aria-label="T"
       inkscape:export-filename="T.svg"
       inkscape:export-xdpi="96"
       inkscape:export-ydpi="96" />
  </g>
</svg>
