<svg id="visual" viewBox="0 0 900 600" width="900" height="600" xmlns="http://www.w3.org/2000/svg" xmlns:xlink="http://www.w3.org/1999/xlink" version="1.1"><rect x="0" y="0" width="900" height="600" fill="#ffffff"></rect><path d="M0 414L11.5 419C23 424 46 434 69 442.5C92 451 115 458 138.2 438.7C161.3 419.3 184.7 373.7 207.8 363C231 352.3 254 376.7 277 394C300 411.3 323 421.7 346 425.8C369 430 392 428 415.2 418.2C438.3 408.3 461.7 390.7 484.8 368.7C508 346.7 531 320.3 554 309.5C577 298.7 600 303.3 623 314.2C646 325 669 342 692.2 350C715.3 358 738.7 357 761.8 361.5C785 366 808 376 831 377.2C854 378.3 877 370.7 888.5 366.8L900 363L900 601L888.5 601C877 601 854 601 831 601C808 601 785 601 761.8 601C738.7 601 715.3 601 692.2 601C669 601 646 601 623 601C600 601 577 601 554 601C531 601 508 601 484.8 601C461.7 601 438.3 601 415.2 601C392 601 369 601 346 601C323 601 300 601 277 601C254 601 231 601 207.8 601C184.7 601 161.3 601 138.2 601C115 601 92 601 69 601C46 601 23 601 11.5 601L0 601Z" fill="#6d97e2"></path><path d="M0 415L11.5 423.3C23 431.7 46 448.3 69 432.8C92 417.3 115 369.7 138.2 357C161.3 344.3 184.7 366.7 207.8 377.8C231 389 254 389 277 379.2C300 369.3 323 349.7 346 360.2C369 370.7 392 411.3 415.2 424C438.3 436.7 461.7 421.3 484.8 415.3C508 409.3 531 412.7 554 398.3C577 384 600 352 623 349C646 346 669 372 692.2 396.2C715.3 420.3 738.7 442.7 761.8 451.2C785 459.7 808 454.3 831 441.5C854 428.7 877 408.3 888.5 398.2L900 388L900 601L888.5 601C877 601 854 601 831 601C808 601 785 601 761.8 601C738.7 601 715.3 601 692.2 601C669 601 646 601 623 601C600 601 577 601 554 601C531 601 508 601 484.8 601C461.7 601 438.3 601 415.2 601C392 601 369 601 346 601C323 601 300 601 277 601C254 601 231 601 207.8 601C184.7 601 161.3 601 138.2 601C115 601 92 601 69 601C46 601 23 601 11.5 601L0 601Z" fill="#5184dc"></path><path d="M0 460L11.5 458.5C23 457 46 454 69 437.3C92 420.7 115 390.3 138.2 384.8C161.3 379.3 184.7 398.7 207.8 417.2C231 435.7 254 453.3 277 456.5C300 459.7 323 448.3 346 449.7C369 451 392 465 415.2 454.8C438.3 444.7 461.7 410.3 484.8 392.3C508 374.3 531 372.7 554 391.3C577 410 600 449 623 452.8C646 456.7 669 425.3 692.2 420.7C715.3 416 738.7 438 761.8 452.5C785 467 808 474 831 473.5C854 473 877 465 888.5 461L900 457L900 601L888.5 601C877 601 854 601 831 601C808 601 785 601 761.8 601C738.7 601 715.3 601 692.2 601C669 601 646 601 623 601C600 601 577 601 554 601C531 601 508 601 484.8 601C461.7 601 438.3 601 415.2 601C392 601 369 601 346 601C323 601 300 601 277 601C254 601 231 601 207.8 601C184.7 601 161.3 601 138.2 601C115 601 92 601 69 601C46 601 23 601 11.5 601L0 601Z" fill="#2f71d4"></path><path d="M0 500L11.5 487.8C23 475.7 46 451.3 69 450C92 448.7 115 470.3 138.2 470.5C161.3 470.7 184.7 449.3 207.8 427.8C231 406.3 254 384.7 277 392.7C300 400.7 323 438.3 346 452.2C369 466 392 456 415.2 457.7C438.3 459.3 461.7 472.7 484.8 473.3C508 474 531 462 554 448.8C577 435.7 600 421.3 623 429.5C646 437.7 669 468.3 692.2 462.8C715.3 457.3 738.7 415.7 761.8 412C785 408.3 808 442.7 831 445.7C854 448.7 877 420.3 888.5 406.2L900 392L900 601L888.5 601C877 601 854 601 831 601C808 601 785 601 761.8 601C738.7 601 715.3 601 692.2 601C669 601 646 601 623 601C600 601 577 601 554 601C531 601 508 601 484.8 601C461.7 601 438.3 601 415.2 601C392 601 369 601 346 601C323 601 300 601 277 601C254 601 231 601 207.8 601C184.7 601 161.3 601 138.2 601C115 601 92 601 69 601C46 601 23 601 11.5 601L0 601Z" fill="#2162be"></path><path d="M0 498L11.5 486.3C23 474.7 46 451.3 69 445.8C92 440.3 115 452.7 138.2 452.7C161.3 452.7 184.7 440.3 207.8 426.2C231 412 254 396 277 396.7C300 397.3 323 414.7 346 417C369 419.3 392 406.7 415.2 410.2C438.3 413.7 461.7 433.3 484.8 443.3C508 453.3 531 453.7 554 453.7C577 453.7 600 453.3 623 446C646 438.7 669 424.3 692.2 422C715.3 419.7 738.7 429.3 761.8 429.5C785 429.7 808 420.3 831 421C854 421.7 877 432.3 888.5 437.7L900 443L900 601L888.5 601C877 601 854 601 831 601C808 601 785 601 761.8 601C738.7 601 715.3 601 692.2 601C669 601 646 601 623 601C600 601 577 601 554 601C531 601 508 601 484.8 601C461.7 601 438.3 601 415.2 601C392 601 369 601 346 601C323 601 300 601 277 601C254 601 231 601 207.8 601C184.7 601 161.3 601 138.2 601C115 601 92 601 69 601C46 601 23 601 11.5 601L0 601Z" fill="#1b55a5"></path><path d="M0 410L11.5 425.7C23 441.3 46 472.7 69 474.8C92 477 115 450 138.2 442.5C161.3 435 184.7 447 207.8 447.8C231 448.7 254 438.3 277 448C300 457.7 323 487.3 346 483.7C369 480 392 443 415.2 443.2C438.3 443.3 461.7 480.7 484.8 497.3C508 514 531 510 554 495.8C577 481.7 600 457.3 623 449.8C646 442.3 669 451.7 692.2 466.2C715.3 480.7 738.7 500.3 761.8 505.8C785 511.3 808 502.7 831 497.8C854 493 877 492 888.5 491.5L900 491L900 601L888.5 601C877 601 854 601 831 601C808 601 785 601 761.8 601C738.7 601 715.3 601 692.2 601C669 601 646 601 623 601C600 601 577 601 554 601C531 601 508 601 484.8 601C461.7 601 438.3 601 415.2 601C392 601 369 601 346 601C323 601 300 601 277 601C254 601 231 601 207.8 601C184.7 601 161.3 601 138.2 601C115 601 92 601 69 601C46 601 23 601 11.5 601L0 601Z" fill="#19509b"></path><path d="M0 440L11.5 447C23 454 46 468 69 473.7C92 479.3 115 476.7 138.2 483C161.3 489.3 184.7 504.7 207.8 506.5C231 508.3 254 496.7 277 485.8C300 475 323 465 346 460.8C369 456.7 392 458.3 415.2 456.3C438.3 454.3 461.7 448.7 484.8 450.2C508 451.7 531 460.3 554 472.2C577 484 600 499 623 501.5C646 504 669 494 692.2 489.2C715.3 484.3 738.7 484.7 761.8 477C785 469.3 808 453.7 831 455.7C854 457.7 877 477.3 888.5 487.2L900 497L900 601L888.5 601C877 601 854 601 831 601C808 601 785 601 761.8 601C738.7 601 715.3 601 692.2 601C669 601 646 601 623 601C600 601 577 601 554 601C531 601 508 601 484.8 601C461.7 601 438.3 601 415.2 601C392 601 369 601 346 601C323 601 300 601 277 601C254 601 231 601 207.8 601C184.7 601 161.3 601 138.2 601C115 601 92 601 69 601C46 601 23 601 11.5 601L0 601Z" fill="#19509b"></path><path d="M0 463L11.5 468.3C23 473.7 46 484.3 69 494.8C92 505.3 115 515.7 138.2 517.2C161.3 518.7 184.7 511.3 207.8 511.5C231 511.7 254 519.3 277 517.3C300 515.3 323 503.7 346 493.7C369 483.7 392 475.3 415.2 484C438.3 492.7 461.7 518.3 484.8 526.3C508 534.3 531 524.7 554 522.5C577 520.3 600 525.7 623 517.7C646 509.7 669 488.3 692.2 489C715.3 489.7 738.7 512.3 761.8 512C785 511.7 808 488.3 831 484.2C854 480 877 495 888.5 502.5L900 510L900 601L888.5 601C877 601 854 601 831 601C808 601 785 601 761.8 601C738.7 601 715.3 601 692.2 601C669 601 646 601 623 601C600 601 577 601 554 601C531 601 508 601 484.8 601C461.7 601 438.3 601 415.2 601C392 601 369 601 346 601C323 601 300 601 277 601C254 601 231 601 207.8 601C184.7 601 161.3 601 138.2 601C115 601 92 601 69 601C46 601 23 601 11.5 601L0 601Z" fill="#1b55a5"></path><path d="M0 518L11.5 515.7C23 513.3 46 508.7 69 507.8C92 507 115 510 138.2 518.3C161.3 526.7 184.7 540.3 207.8 538C231 535.7 254 517.3 277 506.3C300 495.3 323 491.7 346 491.2C369 490.7 392 493.3 415.2 492.5C438.3 491.7 461.7 487.3 484.8 489C508 490.7 531 498.3 554 503.2C577 508 600 510 623 516.3C646 522.7 669 533.3 692.2 536.3C715.3 539.3 738.7 534.7 761.8 533C785 531.3 808 532.7 831 532.3C854 532 877 530 888.5 529L900 528L900 601L888.5 601C877 601 854 601 831 601C808 601 785 601 761.8 601C738.7 601 715.3 601 692.2 601C669 601 646 601 623 601C600 601 577 601 554 601C531 601 508 601 484.8 601C461.7 601 438.3 601 415.2 601C392 601 369 601 346 601C323 601 300 601 277 601C254 601 231 601 207.8 601C184.7 601 161.3 601 138.2 601C115 601 92 601 69 601C46 601 23 601 11.5 601L0 601Z" fill="#2162be"></path><path d="M0 551L11.5 551.5C23 552 46 553 69 548.7C92 544.3 115 534.7 138.2 531.8C161.3 529 184.7 533 207.8 534C231 535 254 533 277 527.8C300 522.7 323 514.3 346 513.7C369 513 392 520 415.2 521.8C438.3 523.7 461.7 520.3 484.8 520.3C508 520.3 531 523.7 554 521.2C577 518.7 600 510.3 623 514.8C646 519.3 669 536.7 692.2 546C715.3 555.3 738.7 556.7 761.8 551C785 545.3 808 532.7 831 532.2C854 531.7 877 543.3 888.5 549.2L900 555L900 601L888.5 601C877 601 854 601 831 601C808 601 785 601 761.8 601C738.7 601 715.3 601 692.2 601C669 601 646 601 623 601C600 601 577 601 554 601C531 601 508 601 484.8 601C461.7 601 438.3 601 415.2 601C392 601 369 601 346 601C323 601 300 601 277 601C254 601 231 601 207.8 601C184.7 601 161.3 601 138.2 601C115 601 92 601 69 601C46 601 23 601 11.5 601L0 601Z" fill="#2f71d4"></path><path d="M0 529L11.5 530.5C23 532 46 535 69 535.5C92 536 115 534 138.2 535.2C161.3 536.3 184.7 540.7 207.8 547.8C231 555 254 565 277 569.2C300 573.3 323 571.7 346 566.8C369 562 392 554 415.2 547.5C438.3 541 461.7 536 484.8 539.7C508 543.3 531 555.7 554 555.7C577 555.7 600 543.3 623 537C646 530.7 669 530.3 692.2 538.3C715.3 546.3 738.7 562.7 761.8 569C785 575.3 808 571.7 831 570.7C854 569.7 877 571.3 888.5 572.2L900 573L900 601L888.5 601C877 601 854 601 831 601C808 601 785 601 761.8 601C738.7 601 715.3 601 692.2 601C669 601 646 601 623 601C600 601 577 601 554 601C531 601 508 601 484.8 601C461.7 601 438.3 601 415.2 601C392 601 369 601 346 601C323 601 300 601 277 601C254 601 231 601 207.8 601C184.7 601 161.3 601 138.2 601C115 601 92 601 69 601C46 601 23 601 11.5 601L0 601Z" fill="#5184dc"></path><path d="M0 588L11.5 588.2C23 588.3 46 588.7 69 583.2C92 577.7 115 566.3 138.2 562.5C161.3 558.7 184.7 562.3 207.8 568C231 573.7 254 581.3 277 582.2C300 583 323 577 346 572.8C369 568.7 392 566.3 415.2 566.2C438.3 566 461.7 568 484.8 568.3C508 568.7 531 567.3 554 566.5C577 565.7 600 565.3 623 568.7C646 572 669 579 692.2 581.7C715.3 584.3 738.7 582.7 761.8 579.2C785 575.7 808 570.3 831 565.7C854 561 877 557 888.5 555L900 553L900 601L888.5 601C877 601 854 601 831 601C808 601 785 601 761.8 601C738.7 601 715.3 601 692.2 601C669 601 646 601 623 601C600 601 577 601 554 601C531 601 508 601 484.8 601C461.7 601 438.3 601 415.2 601C392 601 369 601 346 601C323 601 300 601 277 601C254 601 231 601 207.8 601C184.7 601 161.3 601 138.2 601C115 601 92 601 69 601C46 601 23 601 11.5 601L0 601Z" fill="#6d97e2"></path></svg>